<?xml version="1.0" standalone="no"?>
<svg width="275.0800079345703" height="58.740615079330865" viewbox="0 0 369.54545454545456 78.91277691446827" class="looka-1j8o68f">
<defs id="SvgjsDefs1034"></defs>
<g id="SvgjsG1035" featurekey="4yrtKO-0" transform="matrix(0.9781058416818753,0,0,0.9781058416818753,280.73343833741484,-9.061407809669582)" fill="#4eb013">
<g xmlns="http://www.w3.org/2000/svg"><path d="M44.8,74.2C44.8,74.2,44.8,74.2,44.8,74.2c0.1,0,0.1-0.1,0.1-0.1c0-0.1,0-0.1-0.1-0.1c-0.1,0-0.1,0-0.2,0 c-1.4-1.9-2.8-3.8-4.1-5.7c-0.8-1.1-1.5-2.2-2.1-3.3c-0.6-1.1-1.2-2.3-1.7-3.5c-0.3-0.6-0.5-1.2-0.7-1.8c-0.2-0.6-0.4-1.2-0.6-1.8 c-0.4-1.2-0.7-2.5-0.9-3.8c-0.1-0.6-0.2-1.3-0.3-1.9c-0.1-0.6-0.1-1.3-0.2-1.9c0-0.6-0.1-1.3,0-1.9c0-0.6,0-1.3,0.1-1.9l0,0 c0-0.3-0.1-0.6-0.3-0.8c-0.9-0.8-1.9-1.3-2.8-1.8c-0.9-0.5-1.9-0.9-2.8-1.3c-1.9-0.8-3.9-1.5-5.9-2.1c-1-0.3-2-0.5-3.1-0.7 c-1-0.2-2.1-0.3-3.1-0.4c-1-0.1-2.1-0.1-3.1-0.1c-1,0-2.1,0.1-3.1,0.2l0,0c-0.3,0-0.5,0.3-0.4,0.5c0.2,2.3,0.4,4.7,0.8,7 c0.2,1.2,0.4,2.3,0.7,3.4c0.3,1.2,0.6,2.3,0.9,3.4c0.7,2.2,1.5,4.5,2.7,6.5c0.6,1,1.2,2.1,1.9,3c0.7,1,1.5,1.9,2.4,2.7 c0.9,0.8,1.8,1.6,2.7,2.4c0.9,0.7,1.9,1.5,2.9,2.1c1,0.7,2.1,1.3,3.2,1.7c1.1,0.5,2.3,0.9,3.4,1.2c2.3,0.6,4.7,1,7,1.1 c1.2,0.1,2.4,0.1,3.5,0c1,0,2.1-0.1,3.1-0.2c0.2,0.2,0.4,0.4,0.6,0.6c0,0,0.1,0,0.1,0c0,0,0.1-0.1,0-0.1 C45.1,74.5,44.9,74.3,44.8,74.2z M41.4,73.8c-1.2-0.1-2.3-0.3-3.4-0.4c-2.3-0.4-4.5-0.8-6.7-1.5c-2.2-0.7-4.2-1.6-6-2.9 c-0.9-0.6-1.8-1.4-2.7-2.1c-0.9-0.7-1.8-1.4-2.6-2.2c-0.8-0.8-1.6-1.6-2.4-2.4c-0.7-0.9-1.4-1.8-2.1-2.7c-1.3-1.9-2.3-4-3.1-6.2 c-0.4-1.1-0.7-2.2-1-3.3c-0.3-1.1-0.5-2.3-0.6-3.4c-0.3-2.1-0.4-4.3-0.4-6.4c0.8,0,1.7,0,2.5,0c1,0.1,2,0.2,3,0.3 c1,0.1,2,0.3,2.9,0.6c1,0.2,1.9,0.5,2.9,0.8c1.9,0.6,3.8,1.3,5.6,2.2c0.9,0.4,1.8,0.9,2.7,1.4c0.7,0.4,1.4,0.8,2,1.2 c-0.1,1.2-0.1,2.4,0,3.6c0.1,0.7,0.1,1.4,0.2,2.1c0.1,0.7,0.2,1.4,0.3,2c0.5,2.7,1.5,5.3,2.7,7.8c0.3,0.6,0.6,1.2,1,1.8 c0.3,0.6,0.7,1.2,1.1,1.7c0.8,1.1,1.6,2.2,2.4,3.2c0.9,1,1.8,2,2.7,3c0.6,0.7,1.3,1.4,1.9,2C43.3,73.9,42.3,73.8,41.4,73.8z"></path>
<path d="M90.2,39.1l-1.6,0l-1.6,0l-1.6,0.1l-1.6,0.2c-1,0.1-2.1,0.3-3.1,0.5c-1,0.2-2,0.4-3,0.7c-1,0.3-2,0.6-3,0.9 c-1,0.3-2,0.7-2.9,1.1l-1.4,0.6L69,43.8l-1.4,0.7l-1.4,0.8c-0.2,0.1-0.3,0.3-0.3,0.5l0,0.1l0,1.9c0,0.6-0.1,1.3-0.1,1.9l-0.2,1.9 l-0.3,1.9L65,55.7l-0.5,1.9L64,59.4l-0.6,1.8L62.6,63l-0.8,1.8l-0.9,1.7l-1,1.7l-1.1,1.6l-1.2,1.6l-1.3,1.5 c-0.4,0.4-0.8,0.8-1.2,1.3c-0.3,0-0.7,0.1-1,0.1l0,0c-0.1,0-0.1,0.1-0.1,0.2c0,0.1,0.1,0.1,0.2,0.1l0,0v0c1.2,0.1,2.4,0,3.6,0 c1.2-0.1,2.4-0.2,3.5-0.4c2.3-0.4,4.7-0.9,6.9-1.6c1.1-0.3,2.3-0.7,3.4-1.1c0.3-0.1,0.5-0.2,0.9-0.3l0.8-0.3l1.6-0.7l0.8-0.3 l0.2-0.1c0.2-0.1,0.2-0.1,0.3-0.1l0.4-0.2c0.5-0.3,1.1-0.6,1.6-1c1-0.7,2-1.4,2.9-2.3c1.8-1.7,3.4-3.6,4.6-5.7 c0.6-1,1.2-2.1,1.7-3.2c0.5-1.1,1-2.2,1.3-3.4c0.8-2.3,1.2-4.7,1.6-7c0.3-2.4,0.4-4.7,0.5-7.1l0,0l0,0 C90.7,39.4,90.4,39.2,90.2,39.1z M88.6,46.6c-0.4,2.3-1,4.5-1.8,6.7c-0.4,1.1-0.8,2.1-1.3,3.1c-0.5,1-1,2-1.7,3 c-1.2,1.9-2.6,3.7-4.3,5.2c-0.8,0.8-1.7,1.5-2.6,2.1c-0.5,0.3-0.9,0.6-1.4,0.9l-0.4,0.2c0,0-0.2,0.1-0.1,0.1l-0.2,0.1L74,68.3 L72.4,69l-0.8,0.4l-0.8,0.3c-1.1,0.4-2.1,0.9-3.2,1.3c-2.2,0.8-4.4,1.6-6.6,2.1c-1.1,0.3-2.3,0.5-3.4,0.7c-0.7,0.1-1.3,0.2-2,0.3 c0.4-0.3,0.7-0.6,1.1-0.9l1.5-1.4l1.4-1.5l1.3-1.6l1.2-1.6l1.1-1.7l1-1.8l0.9-1.8l0.8-1.9l0.6-1.9l0.5-2l0.4-2l0.3-2l0.1-2 c0-0.7,0-1.4,0-2l-0.1-1.6l0.9-0.6l1.3-0.8l1.3-0.8l1.4-0.7l1.4-0.7l1.4-0.6l1.4-0.5l1.5-0.4l1.5-0.4l1.5-0.3l1.5-0.2l1.5-0.2 l1.5-0.1l1.5,0l1.5,0.1l1,0.1C89.3,42.3,89,44.5,88.6,46.6z"></path>
<path d="M60.4,61.1c0.6-1.2,1.1-2.6,1.5-4c0.2-0.7,0.4-1.4,0.5-2.2c0.1-0.4,0.1-0.8,0.2-1.1l0.1-0.6l0-0.6c0.2-3.2-0.3-6.5-1.3-9.8 c-1-3.3-2.4-6.4-4.1-9.6c-0.9-1.5-1.9-3-3-4.4c-0.6-0.7-1.2-1.3-1.8-2c-0.6-0.7-1.2-1.3-1.9-2c0,0-0.1-0.1-0.2-0.1l-0.1,0 c0,0,0,0-0.2-0.1c-0.1,0-0.2,0-0.4,0c-0.1,0.1,0.2-0.1-0.2,0.1l-0.2,0.2l-0.5,0.5c-0.3,0.3-0.6,0.7-0.9,1c-0.6,0.7-1.2,1.3-1.7,2 c-1.1,1.4-2.1,2.8-3.1,4.3c-1.8,3-3.3,6.1-4.4,9.3l-0.2,0.6l0,0.1l0,0.2l-0.1,0.3c-0.1,0.4-0.2,0.8-0.3,1.2 c-0.1,0.4-0.2,0.8-0.3,1.2c-0.1,0.5-0.1,0.8-0.2,1.3c-0.2,1.6-0.2,3.3-0.1,4.8c0.3,3.1,1,6,2,8.5c1,2.5,2.1,4.7,3.4,6.6 c1.2,1.8,2.4,3.3,3.5,4.4c1.1,1.1,2,1.9,2.7,2.5c0.7,0.5,1,0.8,1,0.8c0,0,0,0,0,0c-0.3,0.4-0.5,0.7-0.5,0.7c0,0,0,0.1,0,0.1 c0,0,0.1,0,0.1,0c0,0,1.4-1.2,3.3-3.6c1-1.2,2.2-2.7,3.4-4.4C57.8,65.6,59.2,63.6,60.4,61.1z M52.4,71.4c-0.9,1.4-1.7,2.5-2.2,3.1 c0,0,0,0,0,0c0,0-0.3-0.3-0.9-0.9c-0.6-0.6-1.4-1.5-2.3-2.7c-0.9-1.2-2-2.7-3-4.6c-1-1.8-2.1-4-2.9-6.5c-0.9-2.4-1.5-5.2-1.8-8.1 c-0.2-1.5-0.3-3-0.2-4.5c0-0.4,0-0.8,0.1-1.1c0.1-0.4,0.1-0.8,0.2-1.2c0.1-0.4,0.1-0.8,0.2-1.2l0-0.3c0,0,0-0.1,0-0.1l0-0.2 l0.1-0.6c0.7-3.2,2-6.4,3.9-9.3c0.9-1.5,2-2.9,3.1-4.2c0.6-0.7,1.2-1.3,1.8-1.9c0.3-0.3,0.6-0.6,1-0.9l0.4-0.4 c1.1,1.2,2.1,2.6,3.1,3.9c1,1.4,1.9,2.9,2.7,4.4c1.5,3,2.8,6.2,3.7,9.3c0.9,3.1,1.3,6.2,1.2,9.1l0,0.5l-0.1,0.5 c0,0.4-0.1,0.7-0.1,1.1c-0.1,0.7-0.2,1.4-0.4,2c-0.3,1.3-0.8,2.6-1.3,3.8c-1,2.4-2.2,4.5-3.3,6.3C54.3,68.5,53.3,70.1,52.4,71.4z"></path>
<g id="SvgjsG1036" featurekey="Gem1BN-0" transform="matrix(1.7071995239270366,0,0,1.7071995239270366,-0.5121598775295152,-11.096797719581907)" fill="#111111">
<path d="M0.3 20 l0 -2.32 l1.02 0 l3.92 -10.9 l3.08 0 l4.34 10.9 l1.04 0 l0 2.32 l-5.52 0 l0 -2.32 l1.24 0 l-0.5 -1.32 l-4.24 0 l-0.44 1.32 l1.26 0 l0 2.32 l-5.2 0 z M5.42 14.04 l2.66 0 l-1.42 -4.02 z M26.378 20 l-0.3 -1.22 c-0.74 0.94 -1.82 1.5 -3.5 1.5 c-4.02 0 -6.2 -2.8 -6.2 -6.96 c0 -4.18 2.22 -6.82 6.68 -6.82 c3.6 0 5.36 1.78 5.36 3.56 c0 0.12 0 0.26 -0.02 0.38 l-3.3 0.68 l0 -0.22 c0 -1.04 -0.7 -1.62 -2.1 -1.62 c-2.78 0 -3.08 2 -3.08 3.96 c0 2.66 0.68 4.26 3.14 4.26 c0.92 0 2.18 -0.28 2.18 -1.1 l0 -0.98 l-2.2 0 l0 -2.32 l6.34 0 l0 2.32 l-0.98 0 l0 4.58 l-2.02 0 z M32.536 20 l0 -2.32 l1.44 0 l0 -8.58 l-1.44 0 l0 -2.32 l6.62 0 c3.66 0 4.96 1.64 4.96 3.76 c0 1.98 -1.12 3.04 -2.34 3.62 c0.52 0.28 0.9 0.8 1.24 1.74 c0.28 0.78 0.4 1.5 1.7 1.5 l0.16 0 l-0.58 2.72 c-0.28 0.04 -0.54 0.06 -0.78 0.06 c-2.52 0 -3.16 -1.82 -3.66 -3.16 c-0.58 -1.82 -0.78 -1.98 -1.9 -1.98 l-0.62 0 l0 2.64 l1.44 0 l0 2.32 l-6.24 0 z M37.336 12.52 l1.74 0 c1.22 0 1.68 -0.76 1.68 -1.54 c0 -1.22 -0.56 -1.68 -1.68 -1.68 l-1.74 0 l0 3.22 z M54.334 20.28 c-4.3 0 -6.52 -2.92 -6.52 -6.92 c0 -4.1 2.32 -6.86 6.64 -6.86 c4.08 0 6.54 2.46 6.54 6.7 c0 4.1 -2.32 7.08 -6.66 7.08 z M54.394000000000005 17.5 c1.88 0 3.06 -1.24 3.06 -4.16 c0 -2.88 -1.14 -4.06 -3.02 -4.06 c-1.94 0 -3.08 1.26 -3.08 4.1 c0 2.88 1.16 4.12 3.04 4.12 z M70.09000000000002 20 l0 -2.32 l1.48 0 l0 -8.58 l-1.48 0 l0 -2.32 l10.56 0 l0 4.26 l-2.52 0 l0 -1.74 l-3.22 0 l0 2.78 l3.78 0 l0 2.52 l-3.78 0 l0 2.88 l3.34 0 l0 -1.94 l2.52 0 l0 4.46 l-10.68 0 z M83.96800000000002 20 l0 -2.32 l1.18 0 l3.26 -4.78 l-3 -3.8 l-1.24 0 l0 -2.32 l5.86 0 l0 2.32 l-0.92 0 l1.74 2.3 l1.54 -2.3 l-0.92 0 l0 -2.32 l5.58 0 l0 2.32 l-1.34 0 l-3.1 4.54 l3.22 4.04 l1.12 0 l0 2.32 l-5.7 0 l0 -2.32 l0.92 0 l-2 -2.54 l-1.7 2.54 l0.92 0 l0 2.32 l-5.42 0 z M100.20600000000002 20 l0 -2.32 l1.44 0 l0 -8.58 l-1.44 0 l0 -2.32 l6.24 0 c3.88 0 5.42 1.62 5.42 4.52 c0 2.7 -1.5 4.48 -5.7 4.48 l-1.16 0 l0 1.9 l1.64 0 l0 2.32 l-6.44 0 z M105.00600000000001 13.26 l1.14 0 c1.48 0 2.22 -0.58 2.22 -2 c0 -1.52 -0.84 -1.98 -2.04 -1.98 l-1.32 0 l0 3.98 z M121.30400000000002 20.28 c-4.3 0 -6.52 -2.92 -6.52 -6.92 c0 -4.1 2.32 -6.86 6.64 -6.86 c4.08 0 6.54 2.46 6.54 6.7 c0 4.1 -2.32 7.08 -6.66 7.08 z M121.36400000000002 17.5 c1.88 0 3.06 -1.24 3.06 -4.16 c0 -2.88 -1.14 -4.06 -3.02 -4.06 c-1.94 0 -3.08 1.26 -3.08 4.1 c0 2.88 1.16 4.12 3.04 4.12 z M131.30200000000002 20 l0 -2.32 l1.44 0 l0 -8.58 l-1.44 0 l0 -2.32 l6.62 0 c3.66 0 4.96 1.64 4.96 3.76 c0 1.98 -1.12 3.04 -2.34 3.62 c0.52 0.28 0.9 0.8 1.24 1.74 c0.28 0.78 0.4 1.5 1.7 1.5 l0.16 0 l-0.58 2.72 c-0.28 0.04 -0.54 0.06 -0.78 0.06 c-2.52 0 -3.16 -1.82 -3.66 -3.16 c-0.58 -1.82 -0.78 -1.98 -1.9 -1.98 l-0.62 0 l0 2.64 l1.44 0 l0 2.32 l-6.24 0 z M136.10200000000003 12.52 l1.74 0 c1.22 0 1.68 -0.76 1.68 -1.54 c0 -1.22 -0.56 -1.68 -1.68 -1.68 l-1.74 0 l0 3.22 z M149.38 20 l0 -2.32 l1.44 0 l0 -8.38 l-2.02 0 l0 2.04 l-2.52 0 l0 -4.56 l12.44 0 l0 4.56 l-2.52 0 l0 -2.04 l-2.02 0 l0 8.38 l1.44 0 l0 2.32 l-6.24 0 z"></path>
</g>
<g id="SvgjsG1037" featurekey="Gem1BN-1" transform="matrix(3.2937274340268266,0,0,3.2937274340268266,-0.6587448585767135,12.590770108253999)" fill="#111111">
<path d="M5.16 20 l-3.94 -10.9 l-1.02 0 l0 -2.32 l5.84 0 l0 2.32 l-1.34 0 l2.12 6.3 l2.22 -6.3 l-1.38 0 l0 -2.32 l5.42 0 l0 2.32 l-1.32 0 l2.28 6.3 l2.02 -6.3 l-1.32 0 l0 -2.32 l5.72 0 l0 2.32 l-1.12 0 l-3.72 10.9 l-2.8 0 l-2.48 -6.76 l-2.38 6.76 l-2.8 0 z M29.738 20.28 c-4.3 0 -6.52 -2.92 -6.52 -6.92 c0 -4.1 2.32 -6.86 6.64 -6.86 c4.08 0 6.54 2.46 6.54 6.7 c0 4.1 -2.32 7.08 -6.66 7.08 z M29.798 17.5 c1.88 0 3.06 -1.24 3.06 -4.16 c0 -2.88 -1.14 -4.06 -3.02 -4.06 c-1.94 0 -3.08 1.26 -3.08 4.1 c0 2.88 1.16 4.12 3.04 4.12 z M39.736000000000004 20 l0 -2.32 l1.44 0 l0 -8.58 l-1.44 0 l0 -2.32 l6.62 0 c3.66 0 4.96 1.64 4.96 3.76 c0 1.98 -1.12 3.04 -2.34 3.62 c0.52 0.28 0.9 0.8 1.24 1.74 c0.28 0.78 0.4 1.5 1.7 1.5 l0.16 0 l-0.58 2.72 c-0.28 0.04 -0.54 0.06 -0.78 0.06 c-2.52 0 -3.16 -1.82 -3.66 -3.16 c-0.58 -1.82 -0.78 -1.98 -1.9 -1.98 l-0.62 0 l0 2.64 l1.44 0 l0 2.32 l-6.24 0 z M44.536 12.52 l1.74 0 c1.22 0 1.68 -0.76 1.68 -1.54 c0 -1.22 -0.56 -1.68 -1.68 -1.68 l-1.74 0 l0 3.22 z M55.154 20 l0 -2.32 l1.48 0 l0 -8.58 l-1.44 0 l0 -2.32 l6.24 0 l0 2.32 l-1.44 0 l0 8.38 l3.46 0 l0 -2.04 l2.52 0 l0 4.56 l-10.82 0 z M68.992 20 l0 -2.32 l1.44 0 l0 -8.58 l-1.44 0 l0 -2.32 l6.86 0 c4.34 0 6.46 2.66 6.46 6.36 c0 3.56 -1.98 6.86 -6.44 6.86 l-6.88 0 z M73.792 17.48 l2 0 c1.98 0 2.98 -1.42 2.98 -4.2 c0 -2.72 -0.96 -3.98 -3.1 -3.98 l-1.88 0 l0 8.18 z"></path>
</g>
</g>
</g>
</svg>